<?xml version="1.0" encoding="iso-8859-1"?>
<!-- Generator: Adobe Illustrator 19.0.0, SVG Export Plug-In . SVG Version: 6.00 Build 0)  -->
<svg version="1.1" id="Capa_1" xmlns="http://www.w3.org/2000/svg" xmlns:xlink="http://www.w3.org/1999/xlink" x="0px" y="0px"
	 viewBox="0 0 511.448 511.448" style="enable-background:new 0 0 511.448 511.448;" xml:space="preserve">
<g>
	<g>
		<circle cx="303.724" cy="399.448" r="16"/>
	</g>
</g>
<g>
	<g>
		<circle cx="207.724" cy="239.448" r="16"/>
	</g>
</g>
<g>
	<g>
		<path d="M344.556,112.216C318.38,78.84,291.34,44.344,269.516,7.32c-5.76-9.76-21.824-9.76-27.552,0
			c-21.856,37.024-48.896,71.52-75.072,104.896c-53.056,67.68-103.168,131.616-103.168,207.232c0,105.888,86.112,192,192,192
			s192-86.112,192-192C447.724,243.832,397.612,179.896,344.556,112.216z M207.724,191.448c26.464,0,48,21.536,48,48
			s-21.536,48-48,48s-48-21.536-48-48S181.26,191.448,207.724,191.448z M187.052,410.776c-3.136,3.104-7.232,4.672-11.328,4.672
			s-8.192-1.568-11.328-4.672c-6.24-6.24-6.24-16.384,0-22.624l160-160c6.24-6.24,16.384-6.24,22.624,0
			c6.24,6.24,6.272,16.384,0.032,22.624L187.052,410.776z M303.724,447.448c-26.464,0-48-21.536-48-48s21.536-48,48-48
			s48,21.536,48,48S330.188,447.448,303.724,447.448z"/>
	</g>
</g>
<g>
</g>
<g>
</g>
<g>
</g>
<g>
</g>
<g>
</g>
<g>
</g>
<g>
</g>
<g>
</g>
<g>
</g>
<g>
</g>
<g>
</g>
<g>
</g>
<g>
</g>
<g>
</g>
<g>
</g>
</svg>
