<svg id="Capa_1" enable-background="new 0 0 512 512" height="512" viewBox="0 0 512 512" width="512" xmlns="http://www.w3.org/2000/svg"><g><path d="m126.53 314.693c0 26.446 7.93 51.891 22.933 73.582 2.802 4.05 7.412 6.467 12.337 6.467h94.23l30-95.049-30-114.499c-71.407 0-129.5 58.093-129.5 129.499z" fill="#ffb64c"/><path d="m256.03 185.193v209.549h94.23c4.925 0 9.535-2.417 12.337-6.467 15.003-21.691 22.933-47.136 22.933-73.582-.001-71.406-58.094-129.5-129.5-129.5z" fill="#ff9100"/><path d="m256 58.693c-8.284 0-15 6.716-15 15v68.294c0 8.284 6.716 15 15 15 .01 0 .019-.001.029-.001l10-49.146-10-49.146c-.01 0-.019-.001-.029-.001z" fill="#ffb64c"/><path d="m256.029 58.694v98.291c8.271-.016 14.971-6.724 14.971-14.998v-68.294c0-8.275-6.7-14.983-14.971-14.999z" fill="#ff9100"/><path d="m497 299.693h-68.294c-8.284 0-15 6.716-15 15s6.716 15 15 15h68.294c8.284 0 15-6.716 15-15s-6.716-15-15-15z" fill="#ff9100"/><path d="m83.294 299.693h-68.294c-8.284 0-15 6.716-15 15s6.716 15 15 15h68.294c8.284 0 15-6.716 15-15s-6.716-15-15-15z" fill="#ffb64c"/><path d="m443.383 128.144c-5.856-5.858-15.354-5.858-21.213 0l-36.853 36.852c-5.858 5.857-5.858 15.355 0 21.213 2.929 2.929 6.768 4.394 10.606 4.394s7.678-1.465 10.606-4.394l36.853-36.852c5.859-5.857 5.859-15.355.001-21.213z" fill="#ff9100"/><path d="m89.829 128.144c-5.857-5.858-15.355-5.858-21.213 0s-5.858 15.355 0 21.213l36.853 36.852c2.929 2.929 6.768 4.394 10.606 4.394s7.678-1.464 10.606-4.394c5.858-5.858 5.858-15.355 0-21.213z" fill="#ffb64c"/><g><path d="m161.77 423.307c-8.284 0-15 6.716-15 15s6.716 15 15 15h94.23l10-15.94-10-14.06z" fill="#9ee2f8"/><path d="m350.23 423.307h-94.23v30h94.23c8.284 0 15-6.716 15-15s-6.716-15-15-15z" fill="#8cbcff"/></g><g><path d="m70.866 365.742c-8.284 0-15 6.716-15 15s6.716 15 15 15h185.134l10-17.34-10-12.66z" fill="#9ee2f8"/><path d="m441.134 365.742h-185.134v30h185.134c8.284 0 15-6.716 15-15s-6.716-15-15-15z" fill="#8cbcff"/></g></g></svg>