<?xml version="1.0" encoding="iso-8859-1"?>
<!-- Generator: Adobe Illustrator 19.0.0, SVG Export Plug-In . SVG Version: 6.00 Build 0)  -->
<svg version="1.1" id="Capa_1" xmlns="http://www.w3.org/2000/svg" xmlns:xlink="http://www.w3.org/1999/xlink" x="0px" y="0px"
	 viewBox="0 0 512 512" style="enable-background:new 0 0 512 512;" xml:space="preserve">
<g>
	<rect x="324.267" y="341.334" style="fill:#FA962A;" width="102.4" height="17.067"/>
	<rect x="162.133" y="341.334" style="fill:#FA962A;" width="145.067" height="17.067"/>
	<rect x="85.333" y="341.334" style="fill:#FA962A;" width="59.733" height="17.067"/>
	<rect x="230.4" y="392.534" style="fill:#FA962A;" width="162.133" height="17.067"/>
	<rect x="119.467" y="392.534" style="fill:#FA962A;" width="93.867" height="17.067"/>
	<rect x="196.267" y="443.734" style="fill:#FA962A;" width="170.667" height="17.067"/>
	<rect x="145.067" y="443.734" style="fill:#FA962A;" width="34.133" height="17.067"/>
	<rect x="187.733" y="494.934" style="fill:#FA962A;" width="136.533" height="17.067"/>
</g>
<path style="fill:#FDB62F;" d="M256,59.734c-94.31,0.051-170.718,76.544-170.667,170.854c0.017,23.424,4.847,46.601,14.199,68.079
	h312.934c37.649-86.468-1.92-187.085-88.388-224.734C302.601,64.58,279.424,59.751,256,59.734z"/>
<g>
	<path style="fill:#DE4C3C;" d="M34.133,34.134c-2.261,0-4.437-0.896-6.033-2.5L23.1,26.633C16.99,20.489,8.67,17.041,0,17.067V0
		C12.698-0.034,24.917,4.822,34.133,13.56C43.349,4.822,55.569-0.034,68.267,0v17.067c-8.67-0.026-16.99,3.422-23.1,9.566
		l-5.001,5.001C38.571,33.238,36.395,34.134,34.133,34.134z"/>
	<path style="fill:#DE4C3C;" d="M59.733,93.867c-2.261,0-4.437-0.896-6.033-2.5L48.7,86.366c-6.11-6.144-14.43-9.591-23.1-9.566
		V59.734c12.698-0.034,24.917,4.821,34.133,13.559c9.216-8.738,21.436-13.594,34.133-13.559V76.8
		c-8.67-0.026-16.99,3.422-23.1,9.566l-5.001,5.001C64.171,92.971,61.995,93.867,59.733,93.867z"/>
	<path style="fill:#DE4C3C;" d="M119.467,51.2c-2.261,0-4.437-0.896-6.033-2.5l-5.001-5.001c-6.11-6.144-14.43-9.591-23.1-9.566
		V17.067c12.698-0.034,24.917,4.821,34.133,13.559c9.216-8.738,21.436-13.594,34.133-13.559v17.067
		c-8.67-0.026-16.99,3.422-23.1,9.566L125.5,48.7C123.904,50.304,121.728,51.2,119.467,51.2z"/>
</g>
<rect x="0" y="290.134" style="fill:#FA962A;" width="512" height="17.067"/>
<g>
</g>
<g>
</g>
<g>
</g>
<g>
</g>
<g>
</g>
<g>
</g>
<g>
</g>
<g>
</g>
<g>
</g>
<g>
</g>
<g>
</g>
<g>
</g>
<g>
</g>
<g>
</g>
<g>
</g>
</svg>
