<svg height="512pt" viewBox="-60 0 512 512.00002" width="512pt" xmlns="http://www.w3.org/2000/svg"><path d="m185.746094 512h18.855468c11.984376-.015625 22.660157-7.5625 26.671876-18.855469h-72.199219c4.011719 11.292969 14.6875 18.839844 26.671875 18.855469zm0 0"/><path d="m223.457031 267.519531h-56.566406c-10.414063 0-18.855469 8.445313-18.855469 18.859375v18.203125h94.277344v-18.203125c0-10.414062-8.441406-18.859375-18.855469-18.859375zm0 0"/><path d="m148.035156 474.289062h94.277344v-150.851562h-94.277344zm18.855469-103.710937c0-5.207031 4.21875-9.425781 9.425781-9.425781h37.714844c5.207031 0 9.425781 4.21875 9.425781 9.425781v37.714844c0 5.207031-4.21875 9.425781-9.425781 9.425781h-37.714844c-5.207031 0-9.425781-4.21875-9.425781-9.425781zm0 0"/><path d="m185.746094 380.007812h18.855468v18.855469h-18.855468zm0 0"/><path d="m332.644531 169.347656-116.332031-58.839844 126.882812-62.734374c10.171876 11.804687 27.988282 13.132812 39.796876 2.960937 9.714843-8.371094 12.566406-22.238281 6.9375-33.765625l-8.25-16.96875-50.910157 24.738281 3.175781 6.535157-129.34375 64.007812v-16.972656c0-5.207032-4.222656-9.425782-9.429687-9.425782s-9.425781 4.21875-9.425781 9.425782v16.972656l-118.792969-58.664062c2.402344-15.390626-8.128906-29.816407-23.519531-32.222657-12.214844-1.90625-24.246094 4.359375-29.683594 15.460938l-8.25 16.972656 50.910156 24.746094 3.585938-7.371094 113.492187 56.03125-125.589843 59.648437c-11.195313-10.855468-29.070313-10.585937-39.929688.609376-8.269531 8.527343-10.320312 21.320312-5.128906 32.003906l8.25 16.96875 50.867187-24.746094-4.195312-8.628906 127.984375-60.789063v105.527344c-8.015625 2.863281-14.324219 9.171875-17.1875 17.1875h53.230468c-2.863281-8.015625-9.171874-14.324219-17.1875-17.1875v-105.113281l121.179688 61.28125c-2.058594 15.453125 8.804688 29.648437 24.257812 31.703125 12.054688 1.605469 23.78125-4.691407 29.105469-15.628907l8.25-16.96875-50.914062-24.742187zm0 0"/></svg>